<svg width="26" height="26" viewBox="0 0 26 26" fill="none" xmlns="http://www.w3.org/2000/svg">
<path fill-rule="evenodd" clip-rule="evenodd" d="M13.8577 12.1471L13.8435 12.1497L13.7518 12.1949L13.726 12.2001L13.7079 12.1949L13.6162 12.1497C13.6024 12.1454 13.5921 12.1475 13.5852 12.1562L13.58 12.1691L13.5581 12.7219L13.5645 12.7477L13.5774 12.7645L13.7118 12.8601L13.7311 12.8653L13.7466 12.8601L13.881 12.7645L13.8965 12.7439L13.9016 12.7219L13.8797 12.1704C13.8762 12.1566 13.8689 12.1488 13.8577 12.1471ZM14.2 12.0012L14.1832 12.0037L13.9443 12.1239L13.9314 12.1368L13.9275 12.151L13.9507 12.7064L13.9572 12.7219L13.9675 12.7309L14.2271 12.8511C14.2435 12.8554 14.256 12.8519 14.2646 12.8407L14.2698 12.8227L14.2259 12.0296C14.2216 12.0141 14.2129 12.0046 14.2 12.0012ZM13.2765 12.0037C13.2708 12.0003 13.264 11.9992 13.2575 12.0006C13.251 12.0021 13.2453 12.006 13.2416 12.0115L13.2339 12.0296L13.1899 12.8227C13.1908 12.8382 13.1981 12.8485 13.2119 12.8537L13.2313 12.8511L13.4909 12.7309L13.5038 12.7206L13.509 12.7064L13.5309 12.151L13.5271 12.1355L13.5141 12.1226L13.2765 12.0037Z" fill="#040548"/>
<path fill-rule="evenodd" clip-rule="evenodd" d="M18.9717 25.7913C17.1117 25.7228 11.8404 24.9943 6.31979 19.475C0.800501 13.9544 0.0732918 8.68445 0.00354175 6.82316C-0.0997916 3.98666 2.07279 1.23153 4.5825 0.155574C4.88472 0.0250725 5.21568 -0.0246132 5.54289 0.011392C5.87011 0.0473972 6.18235 0.167856 6.44896 0.360949C8.51563 1.86703 9.94163 4.14553 11.1661 5.93707C11.4355 6.33068 11.5507 6.80966 11.4898 7.28273C11.4288 7.7558 11.1959 8.1899 10.8355 8.50232L8.31542 10.3739C8.19367 10.4619 8.10797 10.591 8.07423 10.7373C8.0405 10.8837 8.06103 11.0373 8.132 11.1696C8.70292 12.2068 9.71817 13.7517 10.8807 14.9142C12.0432 16.0767 13.6616 17.1591 14.7712 17.7946C14.9103 17.8727 15.074 17.8945 15.2287 17.8556C15.3835 17.8167 15.5174 17.7199 15.603 17.5853L17.2434 15.0885C17.545 14.6879 17.9899 14.4195 18.4849 14.3396C18.98 14.2597 19.4867 14.3744 19.8991 14.6597C21.7165 15.9178 23.8374 17.3192 25.39 19.3071C25.5987 19.5757 25.7315 19.8954 25.7745 20.2328C25.8174 20.5702 25.7689 20.913 25.6341 21.2252C24.553 23.7479 21.8172 25.8959 18.9717 25.7913Z" fill="#040548"/>
</svg>
